<svg xmlns="http://www.w3.org/2000/svg" width="1024" height="1024" viewBox="0 0 1024 1024">
  <!-- Background -->
  <rect width="1024" height="1024" rx="180" fill="#0F172A"/>

  <!-- Mirrored hook group -->
  <g transform="translate(1024,0) scale(-1,1)">
    <!-- Column -->
    <rect x="430" y="140" width="164" height="380" rx="12" fill="#4B4B4B"/>
    <rect x="446" y="156" width="132" height="348" rx="6" fill="#5A5A5A"/>
    <circle cx="478" cy="184" r="12" fill="#3A3A3A"/>
    <circle cx="546" cy="184" r="12" fill="#3A3A3A"/>

    <!-- Middle housing -->
    <rect x="358" y="504" width="230" height="100" rx="10" fill="#94A3B8"/>
    <rect x="358" y="590" width="230" height="24" rx="10" fill="#64748B"/>
    <rect x="358" y="510" width="20" height="88" fill="#A8B8CC"/>

    <!-- Hook -->
    <path d="M358 600 L358 800 Q358 880 438 880 L500 880 Q588 880 588 800 L588 680 L540 680 L540 786 Q540 830 494 830 L450 830 Q406 830 406 786 L406 600 Z" fill="#94A3B8"/>

    <!-- Serif -->
    <path d="M358 830 L358 880 L408 880 Z" fill="#64748B"/>

    <!-- Shadow -->
    <ellipse cx="480" cy="920" rx="200" ry="20" fill="#000000" opacity="0.15"/>
  </g>
</svg>
